<?xml version="1.0" encoding="utf-8"?><!-- Uploaded to: SVG Repo, www.svgrepo.com, Generator: SVG Repo Mixer Tools -->
<svg fill="#000000" width="800px" height="800px" viewBox="0 0 24 24" id="door-handle-4" data-name="Flat Line" xmlns="http://www.w3.org/2000/svg" class="icon flat-line"><path id="secondary" d="M15,10V8a1,1,0,0,0-1-1H10V4a1,1,0,0,1,1-1h8a1,1,0,0,1,1,1V20a1,1,0,0,1-1,1H11a1,1,0,0,1-1-1V11h4A1,1,0,0,0,15,10Z" style="fill: rgb(44, 169, 188); stroke-width: 2;"></path><path id="primary" d="M10,11v9a1,1,0,0,0,1,1h8a1,1,0,0,0,1-1V4a1,1,0,0,0-1-1H11a1,1,0,0,0-1,1V7" style="fill: none; stroke: rgb(0, 0, 0); stroke-linecap: round; stroke-linejoin: round; stroke-width: 2;"></path><rect id="primary-2" data-name="primary" x="4" y="7" width="11" height="4" rx="1" transform="translate(19 18) rotate(180)" style="fill: none; stroke: rgb(0, 0, 0); stroke-linecap: round; stroke-linejoin: round; stroke-width: 2;"></rect><line id="primary-upstroke" x1="15.05" y1="16" x2="14.95" y2="16" style="fill: none; stroke: rgb(0, 0, 0); stroke-linecap: round; stroke-linejoin: round; stroke-width: 2.5;"></line></svg>